<?xml version="1.0" standalone="no"?>
<!DOCTYPE svg PUBLIC "-//W3C//DTD SVG 20010904//EN"
 "http://www.w3.org/TR/2001/REC-SVG-20010904/DTD/svg10.dtd">
<svg version="1.0" xmlns="http://www.w3.org/2000/svg"
 width="534.000000pt" height="534.000000pt" viewBox="0 0 534.000000 534.000000"
 preserveAspectRatio="xMidYMid meet">
<metadata>
Created by potrace 1.14, written by Peter Selinger 2001-2017
</metadata>
<g transform="translate(0.000000,534.000000) scale(0.100000,-0.100000)"
fill="#000000" stroke="none">
<path d="M982 5273 c-203 -32 -401 -133 -547 -278 -39 -40 -122 -145 -143
-184 -41 -71 -51 -92 -75 -153 -75 -189 -85 -435 -27 -693 70 -319 289 -662
545 -855 33 -25 62 -47 65 -50 9 -9 63 -39 122 -67 48 -24 58 -33 63 -61 4
-20 16 -38 33 -49 15 -9 28 -18 30 -19 2 -1 -10 -35 -27 -75 -38 -89 -38 -113
-6 -143 21 -20 33 -23 74 -19 l49 4 7 -58 c4 -31 9 -66 11 -78 2 -11 7 -52 10
-91 6 -68 5 -72 -29 -125 -103 -161 -137 -289 -132 -494 4 -177 40 -308 128
-464 57 -102 219 -246 364 -327 67 -37 67 -41 7 -226 -81 -251 -61 -332 101
-408 83 -38 157 -52 275 -49 135 3 214 24 261 69 50 48 63 99 54 220 -8 107
-8 130 -1 137 4 4 151 -7 296 -23 48 -5 96 -8 310 -19 184 -10 189 -10 196
-18 4 -3 8 -64 10 -134 5 -179 17 -273 41 -310 19 -29 88 -77 123 -87 74 -20
208 -26 307 -13 137 18 263 96 301 186 25 61 15 216 -28 424 l-18 88 62 31
c191 97 330 170 397 211 42 26 79 47 82 47 4 0 8 -17 24 -100 11 -62 89 -96
239 -106 98 -7 180 8 253 45 81 42 168 154 173 223 1 26 -11 139 -17 148 -2 4
-7 22 -10 41 -3 19 -19 90 -36 159 -16 69 -32 149 -36 177 -5 52 -4 54 61 150
37 54 85 123 108 153 181 247 240 378 190 423 -39 35 -118 13 -255 -70 -48
-29 -61 -33 -68 -22 -5 8 -9 20 -9 27 0 29 -54 172 -96 256 -89 177 -191 316
-348 471 -246 245 -492 366 -812 402 -87 10 -491 10 -563 0 -245 -33 -446
-109 -646 -241 -152 -101 -260 -224 -395 -450 l-66 -111 -95 -7 c-258 -19
-416 -81 -584 -231 l-40 -36 -6 42 c-4 23 -9 71 -13 106 -4 36 -9 68 -12 73
-3 4 2 8 10 8 23 0 56 41 56 69 0 13 -16 53 -35 87 -32 59 -33 63 -15 69 21 7
39 33 45 67 3 11 6 21 7 22 200 81 446 310 606 565 68 109 169 339 186 424 3
12 12 56 21 97 27 118 29 343 4 455 -58 259 -199 468 -411 611 -208 139 -460
196 -706 157z"/>
</g>
</svg>
